<svg xmlns="http://www.w3.org/2000/svg" viewBox="0 0 548.18 548.18"><defs><style>.cls-1{fill:none;stroke:#b8a533;stroke-miterlimit:10;stroke-width:12px;}.cls-2{fill:#e08e48;}.cls-3{fill:#d27743;}.cls-4{fill:#ec974c;}.cls-5{fill:#ce7d43;}.cls-6{fill:#f9a158;}.cls-7{fill:#d67f4e;}.cls-8{fill:#c07140;}.cls-9{fill:#b8a533;}.cls-10{fill:#be6e41;}.cls-11{fill:#ddb96e;}.cls-12{fill:#f1914f;}.cls-13{fill:#db8247;}.cls-14{fill:#e7cd6d;}</style></defs><g id="Layer_2" data-name="Layer 2"><g id="Layer_1-2" data-name="Layer 1"><circle class="cls-1" cx="274.09" cy="274.09" r="268.09"/><path class="cls-2" d="M309.54,413.9c9.47,0,18.9-.13,28.31-.13h0Z"/><path class="cls-3" d="M374,319.55a1.93,1.93,0,0,0-.4.94A3.55,3.55,0,0,1,374,319.55Z"/><path class="cls-4" d="M303.68,384.38l3,2v1.05q-.92,1.5-1.8,3l-1.27.64C303.62,388.84,303.64,386.6,303.68,384.38Z"/><path class="cls-5" d="M445.94,364l.26.16-.28-.13Z"/><path class="cls-6" d="M74,372.63l-.2-.19v-.2Z"/><path class="cls-7" d="M69.56,332.18h0c0-.13-.13-.2-.2-.33A2.4,2.4,0,0,0,69.56,332.18Z"/><path class="cls-8" d="M337.85,413.7h24.64Q350.16,413.8,337.85,413.7Z"/><path class="cls-9" d="M357.14,378.9c-4.39,0-8.88-.13-13.29.16-2.94.19-4.08-.75-3.59-3.56h13.15a10.44,10.44,0,0,1,2.52.62C356.26,377,356.75,378,357.14,378.9Z"/><path class="cls-8" d="M364.9,408.42l-.15.26Z"/><path class="cls-10" d="M271.15,371.65h0l.26-.29Z"/><path class="cls-11" d="M480.06,379c.48-4.39-1.27-8.46-2.94-12.48l-.66-.65c-1.47-1.21-3-2.35-4.6-3.62.13-.2.19-.59.46-.79a13,13,0,0,0,5.94-12c0-5.95-.4-11.89-.59-17.89-.2-.79-.42-1.61-.68-2.39a8.69,8.69,0,0,0-.53-1.21c-1-2.19-2-4.54-2.94-6.89-5.48-5.87-12.76-7.74-20.17-8-15.35-.46-30.5-.13-45.8,0a6.6,6.6,0,0,0-6.87,5.81,98.52,98.52,0,0,0-.35,11V378c0,9.54-.19,19.1,0,28.5a16.5,16.5,0,0,0,2.2,5.75l1.86,1.2c.46.2.94.33,1.47.53h.42c.48-.66,1-1.27,1.46-1.86-.19-.27-.32-.55-.46-.75l.53.75c-.53.59-1,1.2-1.53,1.86h5c10.55.2,21.09.53,31.71.59,4.21,0,8.42.15,12.56,0a58.1,58.1,0,0,0,5.88-.66,20.27,20.27,0,0,0,2.19-.46c.61-.13,1.2-.35,1.8-.48h.13a.51.51,0,0,0,.41-.13h.2a10.37,10.37,0,0,0,1.34-.53h.13c.66-.33,1.34-.68,2-1.07a10.32,10.32,0,0,0,2-1.41,5.89,5.89,0,0,0,1.25-1.14,9.14,9.14,0,0,0,1.76-1.86c.19-.2.39-.33.39-.53.33-.48.73-.87,1-1.33l.86-1.47a27.77,27.77,0,0,0,1.64-4C480.69,392.67,480.06,385.85,480.06,379Zm-32.39,9.54H432.72l-4.21.13c-.2-1.27-.46-2.48-.59-3.73a4,4,0,0,0,0-1.2c-1.54-4.39.46-8.95,0-13.42s0-9.43,0-14.1,0-9.34.13-14.08a10.44,10.44,0,0,1,1.66-3.42c5.42,0,10.77,0,16.16.13a26.15,26.15,0,0,1,4.87,1,24.91,24.91,0,0,1,.75,2.41,8.23,8.23,0,0,1-.88,8.88c-.39.6-1.73.79-2.59.79-3.68.13-7.41.13-11.09.13-1.4,0-2.81-.13-4.21-.13-.4.75-1.05,1.47-1.05,2.2v19.16c0,.66.72,1.4,1.05,2.06h16.77a5.71,5.71,0,0,1,1.54.2,2.56,2.56,0,0,1,2.06,2.19,1.57,1.57,0,0,1,0,.53,2,2,0,0,1,0,.59c2.74,5.06.06,9.8-5.42,9.65Z"/><path class="cls-11" d="M382.84,372.5a13,13,0,0,0-1.25-4.27,10.55,10.55,0,0,1-.55-1.41l-1.21-1.4c-1.53-1.27-3.13-2.52-4.67-3.79a23.85,23.85,0,0,0,4.08-3.69c3.53-5.33,2.81-11.4,2.48-17.36v-2.94a8.69,8.69,0,0,1,0-1.25c-.2-2-.42-4-.62-5.94-.32-.88-.65-1.69-1-2.48-.22-.4-.42-.81-.62-1.21-.92-2-1.79-3.94-2.74-5.87-.85-.46-1.79-.86-2.67-1.34a7,7,0,0,0-1.25-1.8A31,31,0,0,0,353,313.08H319.27c-2.58,0-5.19-.2-7.74,0-3.72.2-7.28,2.19-7.41,6.58-.19,7.61-.33,15.35-.46,22.85v42c1,.68,2.06,1.28,3.07,1.93v1.08l-1.8,3a11.89,11.89,0,0,1-1.27.68v7.74a43.82,43.82,0,0,0-.13,6.58c.72,4.6,1.67,8.22,6,8.55l28.31-.2h24.64l3.6-.52,4.21-1.21c1.66-1,3.46-1.8,5-2.94a20.86,20.86,0,0,0,8-15.76A205,205,0,0,0,382.84,372.5ZM310.2,383.31v-.13h0ZM357,386.8a26.19,26.19,0,0,1-5.68,1.71c-4.39.26-8.95.13-13.42.19l-1.93-.19-2.41.19-2.32-1.33c-.22-.73-.42-1.54-.62-2.33.2-1.82.33-3.62.46-5.41v-11c0-8.48,0-17,.16-25.58,0-1.87,0-3.93,2.39-4.39H349.2c2.87,0,5.33.61,6.41,3.75a14.81,14.81,0,0,0,.26,2.39c-.26,2-.46,4-.73,5.94a13.49,13.49,0,0,1-1.73,1.27H335.87a9.2,9.2,0,0,0-.48,2.2v18.28a14.2,14.2,0,0,0,.61,2.88c1.34,0,2.74,0,4.15.13H353.3a10.42,10.42,0,0,1,2.52.61c.4.92.88,1.93,1.28,2.85,0,2.52,0,5.13-.09,7.81Z"/><path class="cls-11" d="M187.74,392.19a16.64,16.64,0,0,1,0-1.73,12.19,12.19,0,0,0-.26-1.34v-1.53a4.49,4.49,0,0,1,.39-1.34,6.53,6.53,0,0,0,0-1.25V345.33c-.13-6.57-.2-13.28-.59-19.9a23.65,23.65,0,0,0-1.67-5.88,7.56,7.56,0,0,0-1.27-.72,15.31,15.31,0,0,0-10.74-5.35l-5.35-.4h-1.87l-5.35.4-4.27-.4h-6.14c-3.6,0-7.21,0-10.81-.13a13.32,13.32,0,0,0-11.49,5c-.94,1.14-1.27,1.21-2.67,0-2.68-2.19-5.88-4.61-9-4.8-8.88-.59-17.76-.2-26.64-.13a68.77,68.77,0,0,0-11.2.59c-4.14.87-8.22,2.48-9.82,7.08a12.41,12.41,0,0,0-1.87,4c-.28,3.34-.13,6.58-.22,10,0,10.55-.19,21-.32,31.64V413.9h25c1.86,0,2.81-.46,2.67-2.48-.39-4.39-.74-8.77-.87-13.16A20.17,20.17,0,0,1,94,394.4c.13-.81,0-1.6.19-2.41.33-3.66-1.73-7.34-.13-11V344.52c0-3.31,1.27-4.38,4.39-4.54h10.37a3.77,3.77,0,0,1,4.34,3.06,2.81,2.81,0,0,1,0,.41,19.09,19.09,0,0,1,.66,3.35c.13,6.14.13,12.28.13,18.42v10.83h0v37.72h3.62l1,.13c1.07,0,2.08-.13,3.15-.13h18.55v-44.4c-.13-1.08-.26-2.2-.46-3.27.2-.88.33-1.73.46-2.68h0c0-5.87,0-11.75.14-17.54,0-4.08,1.4-5.54,5.41-5.87,3.14,0,6.34.13,9.54.13a3.82,3.82,0,0,1,4.35,3.19,1.93,1.93,0,0,1,0,.34c.2,4,.36,8.09.55,12.1v58.39h4.61c2.06,0,4.14-.13,6.2-.13H185.7c1.66,0,2.19-.59,2.19-2.19C187.74,405.08,187.74,398.68,187.74,392.19ZM69.49,332.24c0-.13-.13-.19-.19-.32s.19.19.26.26Zm4.39,40.2v-.2l.2.39Z"/><path class="cls-11" d="M291.52,405.48c-.42-1.25-.82-2.46-1.14-3.66-.4-.88-.75-1.67-1.08-2.48s0-1.21-.13-1.73c-.59-1-1.21-2-1.8-2.94-1.6-5.07-3.13-10.15-4.67-15.15-2.19-6.14-4.08-12.28-6.16-18.44-.2-.27-.39-.46-.59-.73-1.14-3.61-2.33-7.21-3.47-10.81-.19-.61-.41-1.2-.61-1.75-.59-1.86-1.18-3.6-1.73-5.46s-1.27-3.62-1.87-5.35l-1.79-4.87c-1.54-5.15-3.14-10.35-4.76-15.56a5.05,5.05,0,0,0-4.54-3.53c-4,0-8.07,0-12.15.13H234.62a4.12,4.12,0,0,0-4.84,3.23v.17c-1.14,3.39-2.19,6.88-3.33,10.28a24.91,24.91,0,0,0-.75,2.41c-2,6.14-3.94,12.21-5.87,18.35-3.67,11.49-7.28,23-11,34.54-.19.92-.48,1.93-.74,2.87h0a6,6,0,0,1-.46.66c-2.94,9.27-5.88,18.57-8.77,28.24h28.65c.81-1.8,1.54-3.6,2.35-5.42.26-.92.46-1.93.72-2.94s.75-2.45,1.08-3.66v-4.14a62.56,62.56,0,0,0,3.4-8c3.42-12.1,6.57-24.25,9.75-36.33a26.73,26.73,0,0,0,1.34-2.54h0a3.06,3.06,0,0,0,.53.55c.19.2.48.39.68.59v3.07c.46,1.67.85,3.42,1.33,5.15.86,2.46,1.8,4.94,2.59,7.41s1.6,5.27,2.41,7.94c.2.81.46,1.54.73,2.35a14.69,14.69,0,0,1,.41,1.86c.66,2.19,1.41,4.39,2.06,6.58-.59.41-1.2.81-1.79,1.27H241.31c-1.61,6-3.29,12-4.89,18-.73,2.74-1.41,5.41-2.2,8.15l3.34.2a8,8,0,0,0,1.2,0h0l1,.13c2.06,0,4.12-.13,6.14-.13h48.54C293.44,410.76,292.5,408.09,291.52,405.48ZM256,338.65h-.16A.43.43,0,0,0,256,338.65Zm15.15,33.06h0a.19.19,0,0,1,0-.15.13.13,0,0,1,.13-.13h.2Z"/><path class="cls-9" d="M483.13,403.09a19.13,19.13,0,0,1-17,14.07c-11.75,1.08-23.63.49-35.52.55-6.33,0-12.76-.2-19.16-.26A5.17,5.17,0,0,1,406,413.9h5.28c10.55.19,21.09.52,31.71.59,4.21,0,8.42.15,12.56,0q3-.15,5.88-.59a12.71,12.71,0,0,0,2.19-.53c.61-.13,1.2-.35,1.8-.48h.13a.51.51,0,0,0,.41-.13h.2a12.86,12.86,0,0,0,1.34-.53h.13c.66-.33,1.34-.68,2-1.07a10.77,10.77,0,0,0,2-1.41,5.89,5.89,0,0,0,1.25-1.14,9.14,9.14,0,0,0,1.76-1.86c.19-.2.39-.33.39-.53a5.66,5.66,0,0,0,1-1.33c.33-.49.59-1,.86-1.47a24.74,24.74,0,0,0,1.64-3.95c2.19-6.73,1.6-13.55,1.6-20.44.48-4.38-1.27-8.46-2.94-12.47a11.28,11.28,0,0,1,6.95,9.27C485.47,384.85,486,394.08,483.13,403.09Z"/><path class="cls-9" d="M387.53,399.47A20.64,20.64,0,0,1,367.8,417.3c-17.54.21-35.09,0-52.8,0a5.21,5.21,0,0,1-5.55-3.56l28.31-.19H362.4L366,413l4.21-1.21c1.66-1,3.46-1.79,5-2.93a20.9,20.9,0,0,0,8-15.77c.33-6.93-.13-13.88-.48-20.83A12.72,12.72,0,0,0,381.5,368a10.55,10.55,0,0,1-.55-1.41c5.09,2.48,6.89,7.15,7.08,12.15A125.9,125.9,0,0,1,387.53,399.47Z"/><path class="cls-9" d="M298.93,417.3H239.35c.14-1.25.35-2.33.49-3.4,2.06,0,4.12-.13,6.14-.13h48.54c-1.08-3-2-5.68-3-8.29-.42-1.25-.82-2.46-1.14-3.66-.4-.88-.75-1.67-1.08-2.48s0-1.21-.13-1.73c-.59-1-1.21-2-1.8-2.94-1.6-5.07-3.13-10.15-4.67-15.15-2.19-6.14-4.08-12.28-6.16-18.44-.2-.27-.39-.46-.59-.73-1.14-3.61-2.33-7.21-3.47-10.81-.19-.61-.41-1.2-.61-1.75-.59-1.86-1.18-3.6-1.73-5.46s-1.27-3.62-1.87-5.35l-1.79-4.87c-1.54-5.15-3.14-10.35-4.76-15.56a4.71,4.71,0,0,1,4.69,3.81q7.41,22.14,14.95,44.27,6.24,18.11,12.41,36.11c1.6,4.74,3.14,9.5,4.67,14.3A10.24,10.24,0,0,1,298.93,417.3Z"/><path class="cls-9" d="M192.56,415.1c0,.66-.22,1.34-.28,2.2h-27.5v-3.4c2.06,0,4.15-.13,6.21-.13h14.62c1.67,0,2.2-.6,2.2-2.2V392.19a12.49,12.49,0,0,1,0-1.73,10.26,10.26,0,0,0-.27-1.34v-1.53a4.5,4.5,0,0,1,.4-1.34,8.69,8.69,0,0,0,0-1.25V345.33c-.13-6.57-.2-13.28-.59-19.9a24.53,24.53,0,0,0-1.67-5.88,14.21,14.21,0,0,1,7,12.89C192.7,360,192.56,387.52,192.56,415.1Z"/><path class="cls-9" d="M113.17,343.45c-3,0-6,.15-9,.15-4.38,0-5.35.92-5.35,5.2v65c0,2.87-.72,3.75-3.59,3.68-7.9-.21-15.83,0-24.12,0V414H91.53c1.86,0,2.81-.46,2.67-2.47-.39-4.39-.74-8.78-.87-13.16a19.39,19.39,0,0,1,.68-3.86c.13-.81,0-1.6.19-2.41.33-3.66-1.73-7.35-.13-11V344.52c0-3.31,1.27-4.38,4.39-4.54h10.37a3.75,3.75,0,0,1,4.3,3.11h0C113.15,343.21,113.16,343.33,113.17,343.45Z"/><path class="cls-9" d="M159.7,343.51h-9c-4,0-5.55,1.39-5.55,5.46v65.39c0,2.39-.59,3.13-3,3.07-7.67-.16-15.34,0-23.57,0v-3.55c1.08,0,2.09-.14,3.16-.14h18.55V369.37c-.13-1.08-.26-2.2-.46-3.27.2-.88.33-1.73.46-2.68h0c0-5.87,0-11.75.13-17.54,0-4.08,1.41-5.54,5.42-5.87,3.13,0,6.33.13,9.54.13a3.81,3.81,0,0,1,4.32,3.22h0A.33.33,0,0,0,159.7,343.51Z"/><path class="cls-9" d="M248.65,360.16c-2.48,9.07-5,18.15-7.34,27.29-1.61,6-3.29,12-4.89,18-.73,2.74-1.41,5.42-2.2,8.16s-1.86,4.14-5.22,4c-7.34-.42-14.75-.13-22.16-.13H204c.13-1.47.28-2.54.35-3.62H227.4c.82-1.8,1.54-3.59,2.35-5.41.26-.93.46-1.93.72-2.94s.75-2.46,1.08-3.66V397.7a62.56,62.56,0,0,0,3.4-8c3.42-12.1,6.57-24.25,9.75-36.33a28.16,28.16,0,0,0,1.34-2.55h0a2.76,2.76,0,0,0,.53.55c.19.2.48.4.68.59v3C247.77,356.67,248.28,358.42,248.65,360.16Z"/><path class="cls-9" d="M385.93,357.09a13.13,13.13,0,0,1-6.1,8.33c-1.53-1.27-3.13-2.52-4.67-3.79a23.85,23.85,0,0,0,4.08-3.69c3.53-5.33,2.81-11.4,2.48-17.36v-2.94a8.69,8.69,0,0,1,0-1.25c-.2-2-.42-4-.62-5.94-.32-.88-.65-1.69-1-2.48-.22-.4-.42-.81-.62-1.21-.92-2-1.79-3.94-2.74-5.87a19.3,19.3,0,0,1,9.08,13.55A60.33,60.33,0,0,1,385.93,357.09Z"/><path class="cls-9" d="M482.47,356.47c-.2,4.15-3,6.89-6,9.37-1.47-1.21-3-2.35-4.6-3.62.13-.2.19-.59.46-.79a13,13,0,0,0,5.94-12c0-5.95-.4-11.89-.59-17.89-.2-.79-.42-1.61-.68-2.39a8.69,8.69,0,0,0-.53-1.21c-1-2.19-2-4.54-2.94-6.89,6.58,4.15,8.88,10.7,9.47,17.76A128.57,128.57,0,0,1,482.47,356.47Z"/><path class="cls-9" d="M451.49,342.26c-5.22,0-10.48.14-15.77.14-2.06,0-3.13.79-3.07,3s0,4.39,0,6.58a5.62,5.62,0,0,0-1,2.19v19.16c0,.66.72,1.41,1,2.07v13.15l-4.21.13c-.19-1.27-.46-2.48-.59-3.73a4,4,0,0,0,0-1.2c-1.53-4.39.46-8.95,0-13.42s0-9.43,0-14.1,0-9.34.13-14.07a10.42,10.42,0,0,1,1.67-3.43c5.41,0,10.76,0,16.16.14a24.63,24.63,0,0,1,4.87,1A14.31,14.31,0,0,1,451.49,342.26Z"/><path class="cls-9" d="M355.71,342.46c-5.41,0-10.8.13-16.22,0-2.54,0-3.4,1.12-3.4,3.34v6.33a9.12,9.12,0,0,0-.48,2.19v18.29a14,14,0,0,0,.61,2.87v13.16l-2.41.2-2.32-1.34c-.22-.73-.42-1.54-.62-2.33.2-1.82.33-3.61.46-5.41v-11c0-8.49,0-17,.16-25.59,0-1.87,0-3.93,2.39-4.39h15.56C352.14,338.58,354.6,339.26,355.71,342.46Z"/><path class="cls-11" d="M250.84,340.6l-.79-.22Z"/><path class="cls-11" d="M163.8,358l.24-.25-.22.27Z"/><path class="cls-9" d="M453.22,378.9H436.67l-.2-3.4h13a6.14,6.14,0,0,1,1.54.2,2.56,2.56,0,0,1,2.06,2.19,1.57,1.57,0,0,1,0,.53A1.92,1.92,0,0,1,453.22,378.9Z"/><path class="cls-12" d="M74,372.63l-.2-.19v-.2Z"/><path class="cls-13" d="M271.15,371.71h0a.19.19,0,0,1,0-.15.13.13,0,0,1,.13-.13h.2Z"/><polygon class="cls-13" points="261.06 401.82 261.06 401.88 261 401.82 261.06 401.82"/><path class="cls-11" d="M393.73,242.11v-2.35c-.61-2.39-1.2-4.8-1.79-7.21l-1.21-3.6c-.19-.81-.41-1.62-.68-2.41l-11.2-31.9a9.27,9.27,0,0,0-.68-1.14c-.2-.62-.33-1.21-.53-1.87-.46-1.53-.94-3.07-1.34-4.69-.81-2-1.66-4-2.47-6.07-1.74-5-3.53-10-5.27-15a17.22,17.22,0,0,0-.39-2c-2.68-7.54-5.42-15.09-8.09-22.65-.46-1.18-.88-2.39-1.41-3.53-1.2-2.41-2.47-4.8-3.72-7.28-.35-.39-.75-.72-1.08-1.14s-1.07-.59-1.53-.92l-2.87-2.19h0a34.32,34.32,0,0,0-23-8.47l-2.2.2-3.68-.2c.4-1.33.75-2.41,1.08-3.48a36,36,0,0,0-3.95-30.7c-.79-1.6-1.67-3.2-2.46-4.8-.41-.26-.81-.59-1.27-.86a46.64,46.64,0,0,0-20.1-10.67A36.37,36.37,0,0,0,264.66,73l-2.39,1.79-4.08,4c-1.21,1.53-2.48,3-3.73,4.38l-1.4,2.19-3.49-6.84c0-.19,0-.26-.2-.26-.52-.33-1.07-.61-1.53-.94s-1.47-1-2.19-1.54c-9.23-7.74-19.78-11.35-31.73-8.88-13.09,2.68-22.65,9.89-27.52,22.78-2.87,7.61-5.52,15.22-8.26,22.89q-7.83,22.5-15.7,45c-2.81,8-5.55,16.07-8.27,24.12s-5.48,16-8.22,23.9l-2,5.88c-1.14,3.07-2.19,6.07-3.42,9.14l-1.4,4.67-2.39,6.58c-.2.72-.48,1.53-.68,2.19-.59,3.09-1.12,6-1.73,9.1h0c.2,2.46.39,4.8.61,7.28a65.93,65.93,0,0,0,2.46,9.6,38.49,38.49,0,0,0,15.35,17.43l.65.53h0a10,10,0,0,0,1.14.55h0c2.74.79,5.55,1.6,8.29,2.45-.2-.52-.48-1.05-.74-1.66h0c.19.61.48,1.14.68,1.66a9.17,9.17,0,0,0,1.27.35,33.22,33.22,0,0,0,25-3.79c5.41-3.07,10.54-6.58,13.28-12.43.2-.53,1.54-.53,2.35-.72.92,1.33,1.93,2.74,2.87,4.14a21.89,21.89,0,0,1,1.87,1.73l1.79,2,1.8,1.2c.35.33.75.75,1.14,1.14a5.73,5.73,0,0,0,1.21.73,10,10,0,0,1,1.27,1.07l4,3L222,280h0l3.6.61,2.34.59a18.18,18.18,0,0,1,1.93.49c17.54,2.71,30.52-4.39,40.13-19.39,1.07,2.2,2.06,3.88,3.07,5.75,2.93,4.6,5.94,9.23,8.77,13.83,1,1,2,1.93,2.93,2.94,1.67,1.6,3.27,3.2,4.87,4.8.22.2.35.4.55.59L301,298.06a9.44,9.44,0,0,0,1.27.53h0l1.73.13.68.39c1.41.49,2.81.88,4.21,1.34.59.35,1.12.68,1.73,1a19.91,19.91,0,0,0,2.39.72c2,.42,4,.88,6,1.34,2.41.35,4.89.62,7.34.94h10.77c3.13-.65,6.33-1.27,9.54-1.92,4.38-2,9-3.62,13.35-5.68,1.4-.75,2.8-1.47,4.21-2.2l1.53-.92a10.2,10.2,0,0,0,1.47-.94,29,29,0,0,0,2.87-2.19,60.09,60.09,0,0,0,7.68-7.28,35.91,35.91,0,0,0,2.87-3.62,17.48,17.48,0,0,0,1-1.53l.39-.6c.68-1,1.28-2,1.87-3.07,2.41-5.21,5-10.28,7.15-15.56.74-1.74,0-4.39,1-5.75C394.81,249.65,393.73,246,393.73,242.11ZM264.88,84.24a7.67,7.67,0,0,0,.92.79,10.13,10.13,0,0,1-1-.72Zm-2.42-5.48V79A.33.33,0,0,0,262.46,78.76ZM162,275.83c0-.13-.2-.22-.27-.35l.33.22Zm49.26-72.73c-.46,1.27-.85,2.54-1.27,3.82l-5.39,15.34c-.42,1.08-.75,2.09-1.14,3.07l-2.19,6.58c-.79,2.19-1.67,4.39-2.46,6.58a6.18,6.18,0,0,1-.2,1.14c-1.6,4.38-3.13,8.88-4.75,13.29-.6,1.27-1.19,2.47-1.8,3.75l-6.58,7.6L177,268.48c-1.6.27-3.2.46-4.8.73A20.64,20.64,0,0,1,158,264.34c-1.93-1.73-3.85-3.4-5.74-5.15a22.87,22.87,0,0,1-2.19-2.72c0-.22-.13-.35-.2-.55-.81-3.6-1.6-7.28-2.48-11-2-3.34,1.08-6.14,1.08-9.28,0-1.69,1.4-3.35,2.19-5.08l1.07-2.15c3.34-9.47,6.76-18.95,10.16-28.51,4.86-13.94,9.82-27.91,14.62-41.85s9.76-28.31,14.69-42.45c2.61-7.54,4.93-15.35,8.13-22.56a21.54,21.54,0,0,1,17-13,23.19,23.19,0,0,1,17.76,3.82A4.91,4.91,0,0,1,235,85a18.82,18.82,0,0,1,8.5,11.9,32,32,0,0,1,.55,9,166,166,0,0,1-4.76,16.29c-1.27,3.62-2.52,7.21-3.79,11q-5.23,14.94-10.35,30c-.13.33-.2.68-.35,1.08s-.59,1.27-.92,1.93l-.2,1.6c-.41,1.27-.81,2.48-1.2,3.75-1.8,4.87-3.75,9.6-5.42,14.49-1.14,3.14-2,6.4-2.94,9.6-.9,2.38-1.91,4.89-2.86,7.48ZM225,186.35l-.22.2a.22.22,0,0,1,.13-.2Zm82.31-71.44c-1.05,2.94-2.19,6-3.2,8.88q-8.53,24.45-17.08,48.75l6.73,4.38a4.86,4.86,0,0,1-.27.92c-1.53-.52-3-1-4.73-1.53v2.8a2.23,2.23,0,0,0-.61.27c-1.06.61-2.2,1.82-3.14-.4-1.21,3.6-2.39,7.22-3.6,11-.87,2.19-1.66,4.38-2.47,6.57-.73,2.88-1.54,5.68-2.2,8.55-2.19,5.75-4.38,11.47-6.68,17.22-.14.41-.33.87-.46,1.33-2.88,8.16-5.75,16.23-8.62,24.39-1.8,5-3.4,10-7.48,13.94a26,26,0,0,1-16.35,7.41l-4.17-.28c-2.94-1.34-5.88-2.74-8.77-4.08-.68-.59-1.34-1.27-1.93-1.87l-2.19-.81c-1.08-1.31-2.2-2.65-3.27-4-.53-.81-1.14-1.6-1.67-2.48a10.58,10.58,0,0,1-.81-2.87h0c-.33-1.2-.66-2.41-1.07-3.59.35-3.82.41-7.7,1.07-11.36a67.26,67.26,0,0,1,2.74-8.42c.53-1.4,1-2.81,1.47-4.21.27-.79.53-1.6.75-2.32a1.77,1.77,0,0,1,.13-.82l-.75-.19h.14a6.11,6.11,0,0,0,.67-.46c.73-2.2,1.47-4.21,2.2-6.27.19-.42.33-.88.55-1.28.39-1,.78-2,1.25-2.93l3-8.42,2.41-7.22c.94-2.8,1.86-5.61,2.87-8.42a1.74,1.74,0,0,0,.13-.59c.2-1.6.4-3.2.62-4.8.79-.81,1.86-1.47,2.19-2.48.59-1.53,1.14-3.13,1.67-4.73s.94-3.21,1.47-4.81h0c.33-1,.74-2,1.14-3,2.19-6.42,4.38-12.83,6.57-19.16.22-.68.36-1.27.55-1.89.59-1.6,1.21-3.2,1.74-4.8.65-2,1.33-4,1.92-5.94.42-.79.75-1.67,1.14-2.48h0c.82-2.06,1.54-4.12,2.2-6.21s1.47-4.14,2.19-6.27c2.41-7,4.74-14,7.08-21,2-3.82,4-7.7,6-11.49a25.9,25.9,0,0,1,14.76-7.61,21.81,21.81,0,0,1,17.54,5.06h0a2.37,2.37,0,0,1,.46.49c1,.79,2,1.66,3,2.52a7.27,7.27,0,0,1,.68.68,8.48,8.48,0,0,1,1.12,1.66c1.4,2.94,2.81,6,4.21,9-.13,1.8-.33,3.66-.46,5.48-.2,1.4-.4,2.81-.53,4.21-.48,1.38-.88,2.79-1.27,4.19-.2.61-.42,1.21-.61,1.75M318.7,250.62c-.88,2.19-1.73,4.38-2.61,6.57l-1.6,2.61c-1.21,1.34-2.39,2.74-3.6,4.06L303.7,268c-2.94.68-5.81,2.35-9,1.34l-3.62-.59-6.57-3.2c-.2-.22-.4-.42-.62-.62H284a8.24,8.24,0,0,1-.74-1.2,7.91,7.91,0,0,1-2.61-1.05,22.36,22.36,0,0,1-.06-31.62h0c.28-.28.57-.56.86-.82,1.93-1.47,4-2.88,5.94-4.39,1.21-.39,2.48-.81,3.67-1.14l2.41-.53H297a4.92,4.92,0,0,1,.94,0,3.66,3.66,0,0,1,.81,0,1.19,1.19,0,0,1,.46,0h.59l1,.2a15.29,15.29,0,0,1,1.87.53,3.5,3.5,0,0,1,.94.28l.85.4,1,.39a17.39,17.39,0,0,1,1.66,1,10.38,10.38,0,0,1,.88.59c.53.4,1.07.81,1.6,1.27a6.49,6.49,0,0,1,.66.73h0a28.38,28.38,0,0,1,3.48,3,20.32,20.32,0,0,1,4.81,13.35Zm-16.7-33a3.51,3.51,0,0,1,.4-.27h0Zm.86-4.21a.22.22,0,0,0,.2-.13c.06-.14.15,0,.22.13s-.22.15-.29.22a.41.41,0,0,1-.11-.07ZM332.21,249a2,2,0,0,0,.39-.68v-.14a.21.21,0,0,0,0-.19v-.2a.23.23,0,0,0,0-.2c-2.19-6.58-4.56-13-6.81-19.51-.2-.4-.33-.86-.53-1.25-1.89-5.61-3.82-11.16-5.68-16.71-.94-2.61-1.88-5.26-2.81-7.87-.26-.94-.52-1.93-.74-2.94a29,29,0,0,0-1.19-3.27c-1.62-4.38-3.22-8.61-4.82-13h-1.34l.88-1.34-.59-1.6c-2-5.81-3.82-11.62-5.81-17.37A23.65,23.65,0,0,1,308,138.55a22.55,22.55,0,0,1,14.5-7.41,25.3,25.3,0,0,1,12.41,1.67l4.73,3.2c.33.19.75.46,1.14.66,1.54,1.6,3.14,3.2,4.74,4.75,3.13,8.66,6.36,17.35,9.56,26,.59,1.6,1.34,3.07,2,4.61l.6,2.41c.22.59.41,1.21.61,1.8,1.93,5.41,3.86,11,5.81,16.29.86,2.41,1.73,4.73,2.61,7.15l1,3.59,4.38,12c.62,1.6,1.14,3.27,1.67,4.87.48,1.2.94,2.32,1.34,3.53L379.9,238h0c.42,2.42.81,4.87,1.2,7.28-.19.79-.32,1.54-.52,2.33s-.33,1.69-.46,2.47h2.52a2.36,2.36,0,0,1,.13.75l-2.94.79c-.33.68-.65,1.34-1.05,2-.94,1.79-1.95,3.59-2.94,5.39v.13c-1.75,1.73-3.48,3.49-5.28,5.22-1.08.59-2.06,1.27-3.14,1.86-3.4.82-6.82,1.6-10.21,2.48h-1.8c-.62-.2-1.21-.39-1.73-.61-1.41-.27-2.81-.53-4.21-.73l-4.21-1.79c-.6-.68-1.21-1.34-1.87-2a9.91,9.91,0,0,1-2.87-1.86c-2.35-2.81-4.39-5.82-6.69-8.78-.59-.59,8.29,11.3,7.68,10.68-.2-.13-1.74-4.19-1.95-4.38-9.39-31.16-5.16-11.67-5.16-11.73s-.87-.81-.87-.88"/><path class="cls-9" d="M397.07,259.67A72.33,72.33,0,0,1,386.52,282a62.81,62.81,0,0,1-38.72,25,63.86,63.86,0,0,1-40.67-5.15,26.11,26.11,0,0,1-4.67-3.27l1.73.13.68.39c1.4.49,2.8.88,4.21,1.34.59.35,1.12.68,1.73,1a16.83,16.83,0,0,0,2.39.72c1.95.42,3.95.88,5.94,1.34,2.41.35,4.89.62,7.35.94h10.76c3.14-.65,6.34-1.27,9.54-1.92,4.39-2,9-3.62,13.35-5.68,1.41-.67,2.82-1.4,4.21-2.2.53-.33,1.08-.65,1.54-1a12.7,12.7,0,0,0,1.47-.95,29,29,0,0,0,2.87-2.19,60,60,0,0,0,7.67-7.28,34.64,34.64,0,0,0,2.88-3.62,15.46,15.46,0,0,0,1-1.53l.4-.59c.68-1,1.27-2,1.86-3.07,2.41-5.22,5-10.29,7.15-15.57.75-1.73,0-4.38,1-5.74,2.54-3.6,1.47-7.35,1.47-11.14v-2.35c-.62-2.39-1.21-4.8-1.8-7.21l-1.21-3.6a22.07,22.07,0,0,0-.68-2.41l-11.2-31.9a8.17,8.17,0,0,0-.68-1.14c-.2-.62-.33-1.21-.53-1.87-.46-1.53-.94-3.07-1.33-4.69-.81-2-1.67-4-2.48-6.07-1.73-5-3.53-10-5.26-15a19.65,19.65,0,0,0-.4-2c-2.67-7.54-5.41-15.09-8.09-22.65-.46-1.18-.87-2.39-1.4-3.53-1.21-2.41-2.48-4.8-3.73-7.28A38.78,38.78,0,0,1,366.21,148c4.14,12.21,8.61,24.32,12.82,36.53,4.39,12.83,8.77,25.56,13.16,38.39,1.53,4.39,2.94,8.95,4.54,13.35A34.88,34.88,0,0,1,397.07,259.67Z"/><path class="cls-14" d="M162.44,279.62h0c.26.62.55,1.14.74,1.67A11.31,11.31,0,0,1,162.44,279.62Z"/><path class="cls-9" d="M207.52,268.55a36.18,36.18,0,0,1-22.43,16.23,33.48,33.48,0,0,1-30.26-5.9c2.74.79,5.55,1.6,8.29,2.45a11.38,11.38,0,0,0,1.27.35,33.22,33.22,0,0,0,24.69-4.12c5.41-3.07,10.54-6.58,13.28-12.43.2-.53,1.54-.53,2.35-.72C205.57,265.72,206.62,267.15,207.52,268.55Z"/><path class="cls-9" d="M273.08,268.07a36.59,36.59,0,0,1-26,17.38,36.22,36.22,0,0,1-24-4.38c-.46-.2-.79-.72-1.19-1.14h0l3.6.61,2.35.6a16,16,0,0,1,1.93.48c17.54,2.72,30.52-4.39,40.12-19.38C271.08,264.41,272.07,266.2,273.08,268.07Z"/><path class="cls-9" d="M326.36,117.79l-2.2.19-3.68-.19c.39-1.34.75-2.41,1.07-3.49a36,36,0,0,0-3.94-30.7c-.79-1.6-1.67-3.2-2.46-4.8C326.84,89.52,330.43,102.55,326.36,117.79Z"/><path class="cls-9" d="M235.12,85a26.25,26.25,0,0,0-17.89-.33,23.55,23.55,0,0,0-14.4,15.15L183.09,157.1q-9.75,27.77-19.45,55.56c-3.4,9.89-7.28,19.56-10.41,29.51-2.54,8.07-.46,15.61,4.8,22.24-1.93-1.74-3.86-3.4-5.74-5.16a19.83,19.83,0,0,1-2.2-2.72c0-.21-.13-.35-.19-.54-.82-3.6-1.6-7.28-2.48-11-2-3.33,1.07-6.14,1.07-9.27,0-1.69,1.41-3.36,2.2-5.09l1.11-2.21c3.34-9.47,6.76-18.95,10.16-28.51,4.86-13.94,9.82-27.91,14.62-41.85s9.76-28.31,14.69-42.45c2.61-7.54,4.93-15.35,8.13-22.56a21.54,21.54,0,0,1,17-13,23.19,23.19,0,0,1,17.76,3.82A4.72,4.72,0,0,1,235.12,85Z"/><path class="cls-9" d="M300.66,84.92a19.32,19.32,0,0,1-2-.46c-9.73-2.94-18.55-1.07-25.37,6.58A39.57,39.57,0,0,0,267,103.27c-4.67,12.94-9.08,26-13.55,39.12Q247.26,160.17,241,178c-6.8,19.45-13.68,38.87-20.35,58.36a58,58,0,0,0-2.8,11c-.82,5.74,1.4,10.83,4.21,15.63l-2.2-.81c-1.07-1.32-2.19-2.65-3.26-4-.53-.81-1.14-1.6-1.67-2.48a10.23,10.23,0,0,1-.81-2.87h0c-.33-1.21-.66-2.41-1.08-3.6.36-3.81.42-7.69,1.08-11.35a65.16,65.16,0,0,1,2.74-8.42c.53-1.41,1-2.81,1.47-4.21.26-.79.52-1.6.74-2.33a1.72,1.72,0,0,1,.14-.81l-.75-.2h.13a4.51,4.51,0,0,0,.68-.46c.72-2.19,1.47-4.21,2.19-6.27.2-.41.33-.87.55-1.27.4-1,.79-1.95,1.25-2.94l3-8.42,2.41-7.21c.94-2.81,1.86-5.61,2.87-8.42a2,2,0,0,0,.13-.59c.2-1.6.4-3.2.62-4.8.78-.82,1.86-1.47,2.19-2.48.59-1.54,1.14-3.14,1.66-4.74s1-3.2,1.54-4.8c.33-1,.74-2,1.14-3q3.28-9.64,6.58-19.17c.22-.68.35-1.27.55-1.88.59-1.6,1.2-3.2,1.73-4.8.66-2,1.33-4,1.93-5.95.41-.79.74-1.66,1.14-2.47.74-2.06,1.47-4.13,2.19-6.27s1.47-4.15,2.19-6.28c2.41-7,4.74-14,7.08-21,2-3.82,4-7.7,6-11.49a25.94,25.94,0,0,1,14.85-7.39,21.81,21.81,0,0,1,17.54,5.06Z"/><path class="cls-9" d="M310.33,229.87c-15.35-7.19-31.9,5.68-31.44,20.11a24.76,24.76,0,0,0,4.38,13.75,7.72,7.72,0,0,1-2.61-1.06,22.35,22.35,0,0,1-.06-31.61h0c.28-.29.57-.56.86-.83,1.93-1.47,3.95-2.87,5.95-4.38,1.2-.4,2.47-.81,3.66-1.14l2.41-.53H297a4.92,4.92,0,0,1,.94,0,3.66,3.66,0,0,1,.81,0,.9.9,0,0,1,.46,0h.6l1,.2a15.29,15.29,0,0,1,1.87.53,3.5,3.5,0,0,1,.94.28l.86.4.94.39a15.55,15.55,0,0,1,1.66,1,10.38,10.38,0,0,1,.88.59c.53.39,1.08.81,1.6,1.27A7.17,7.17,0,0,1,310.33,229.87Z"/><path class="cls-14" d="M163.12,281.29c-.2-.53-.49-1.05-.75-1.67h0C162.63,280.24,162.92,280.76,163.12,281.29Z"/><path class="cls-14" d="M162,275.7v.13c0-.13-.19-.22-.26-.35Z"/><path class="cls-9" d="M332.85,248a.31.31,0,0,0,0-.19c-2.2-6.58-4.56-13-6.82-19.52-.2-.39-.33-.85-.53-1.25-1.88-5.61-3.81-11.16-5.68-16.71-.94-2.6-1.88-5.26-2.8-7.87-.27-.94-.53-1.93-.75-2.93a29.68,29.68,0,0,0-1.18-3.27c-1.63-4.39-3.23-8.62-4.83-13a14.31,14.31,0,0,1-.46-1.4l-.59-1.6c-1.95-5.81-3.82-11.62-5.81-17.37a23.68,23.68,0,0,1,4.6-24.36,22.55,22.55,0,0,1,14.5-7.41,25.3,25.3,0,0,1,12.41,1.67l4.73,3.2c-2.45-.4-5-.88-7.47-1.27A21.6,21.6,0,0,0,316.42,139a23.93,23.93,0,0,0-8.35,27.71c3.95,10.74,7.74,21.62,11.49,32.45,4.87,13.88,9.67,27.76,14.54,41.66,2.19,5.88,4,11.82,6.22,17.69a31.26,31.26,0,0,0,2.94,5.07,9.91,9.91,0,0,1-2.87-1.86"/><path class="cls-14" d="M146.39,231.93l-.13.27.13-.24Z"/><path class="cls-14" d="M284.46,280.57l-.14.26Z"/><path class="cls-14" d="M224.86,186.35a.22.22,0,0,1-.13.2l.22-.2Z"/><path class="cls-14" d="M225,186.35l-.22.2a.22.22,0,0,1,.13-.2Z"/><path class="cls-14" d="M241.83,140.74l-.13-.3.26.24Z"/><path class="cls-14" d="M293.71,176.94a4.86,4.86,0,0,1-.27.92c-1.53-.52-3-1-4.73-1.53v2.74a2.4,2.4,0,0,0-.61.33c-1.06.61-2.2,1.82-3.14-.4.68-2.19,1.34-4.38,2-6.4C289.24,174,291.52,175.47,293.71,176.94Z"/><path class="cls-14" d="M302.39,217.48a2.7,2.7,0,0,0-.39.27l.46-.2Zm29.84,31.67a2.42,2.42,0,0,0,.27-.36"/><path class="cls-14" d="M326.49,254.76a.64.64,0,0,0-.27.22s0-.16.14-.16A.22.22,0,0,0,326.49,254.76Z"/><path class="cls-14" d="M319.87,264.36l.15-.24Z"/><path class="cls-14" d="M382.71,250.79l-2.94.79a11.37,11.37,0,0,0,.28-1.65l2.55-.48A10,10,0,0,1,382.71,250.79Z"/><path class="cls-14" d="M210,257.74l-.24-.13.24.15Z"/><path class="cls-14" d="M310.2,183.28a10,10,0,0,1-1.34,0l.88-1.34A10.59,10.59,0,0,0,310.2,183.28Z"/><path class="cls-14" d="M229.22,187.51l-.13.26Z"/><path class="cls-14" d="M293.44,210.31a6.88,6.88,0,0,0,4.87-.92A6.78,6.78,0,0,1,293.44,210.31Z"/><path class="cls-14" d="M302.46,217.59l-.46.2a3.77,3.77,0,0,1,.39-.26Z"/><path class="cls-14" d="M303.27,213.58l-.29.22a.32.32,0,0,1-.13-.22.23.23,0,0,0,.2-.13C303.11,213.32,303.2,213.52,303.27,213.58Z"/><path class="cls-14" d="M312.67,213.34l-.26.24.24-.26Z"/><path class="cls-14" d="M313.27,116.08l.13-.24-.13.26Z"/><path class="cls-6" d="M390.42,273.55l-.06-.06v-.06Z"/><path class="cls-7" d="M389.09,261.32h0a.13.13,0,0,0-.06-.1Z"/><path class="cls-12" d="M390.42,273.55l-.06-.06v-.06Z"/></g></g></svg>