<svg xmlns="http://www.w3.org/2000/svg" viewBox="0 0 196.76 180.72"><defs><style>.cls-1{fill:#5e3aef;}.cls-2{fill:none;stroke:#000;stroke-miterlimit:10;stroke-width:10px;}.cls-3{fill:#fff;}</style></defs><g id="Layer_2" data-name="Layer 2"><g id="Layer_1-2" data-name="Layer 1"><path d="M196.73,134a28.53,28.53,0,0,0-1.51-7.94q-3.67-10.6-7.35-21.2s0,0,0,0Q179.64,81.1,171.34,57.4A27.66,27.66,0,0,0,146.08,39H141c6.4-17-3.12-30.7-12.6-35.6A28,28,0,0,0,110,.47C101.29,2.11,94.77,7,90.3,14.69a2.44,2.44,0,0,1-.29-.27c-.17-.27-.33-.56-.51-.83C83.2,3.67,73.93-1,62.43.26S42.89,8,39.05,19Q20.23,72.68,1.61,126.49a27.27,27.27,0,0,0-.93,15.26A28,28,0,0,0,52.19,150c.18-.3.38-.59.6-.93,10.65,19.79,39.91,19.69,50.29-1.48h0l0-.1c.22.58.43,1.09.62,1.6a47.69,47.69,0,0,0,14.88,21c.44.37.89.71,1.34,1l1,.76c.28.2.56.4.85.59s.42.3.64.43c.58.38,1.17.75,1.76,1.1l1.12.65,0,0q.92.51,1.86,1l.38.19.19.08c.35.17.71.35,1.07.51l1.1.48q1.2.51,2.43,1c.57.2,1.14.4,1.72.58s1.16.36,1.74.52,1.17.31,1.76.45,1.17.27,1.76.38l.13,0,1.34.24c.56.09,1.13.17,1.7.24.4.06.8.1,1.2.14.56.06,1.12.11,1.69.14.38,0,.76,0,1.15.06.69,0,1.38.05,2.07.05.54,0,1.08,0,1.61,0,.86,0,1.72-.08,2.58-.16a.32.32,0,0,0,.14,0c.46,0,.93-.09,1.39-.15l.53-.08q.6-.07,1.2-.18a.16.16,0,0,0,.1,0l1.16-.2a52,52,0,0,0,6.56-1.65l1.06-.37.29-.11h0a44.91,44.91,0,0,0,12.63-7l.6-.48a51,51,0,0,0,10.77-12.23c2.63-4.1,4.23-8.65,5.75-13.25.13-.34.25-.7.35-1a.49.49,0,0,0,0-.11l0-.11a28.44,28.44,0,0,0,1.2-9.33.09.09,0,0,0,0-.07A.57.57,0,0,0,196.73,134Zm-15.16,14a17.48,17.48,0,0,1-9.51,5,18.17,18.17,0,0,1-18.49-8c-.19-.3-.38-.6-.55-.91s-.26-.47-.38-.71a20.51,20.51,0,0,1-.95-2.25q-7.16-20.52-14.29-41L133,87.36Q130.5,80.25,128,73.15c-.15-.36-.28-.73-.4-1.1A18.11,18.11,0,1,1,162,60.72q5.34,15.15,10.6,30.32h0q2.77,8,5.56,16c2.57,7.37,5.17,14.72,7.64,22.12.14.5.28,1,.4,1.51l.36,1.51c.23,1,.42,2,.59,3.06h0a18.44,18.44,0,0,1-.66,4.35c-.05.2-.11.4-.17.6a16.46,16.46,0,0,1-.68,1.86c-.13.31-.27.61-.41.9s-.34.67-.52,1-.43.73-.66,1.09a20.07,20.07,0,0,1-1.4,1.89C182.28,147.32,181.93,147.7,181.57,148.07ZM45.3,141.3A18.1,18.1,0,0,1,10,135.4c-.22-3,1.07-6,2.12-9Q30.22,74.36,48.31,22.32A18.08,18.08,0,0,1,83.14,24a17.28,17.28,0,0,1-.51,9.89l-20,57.65Q54,116.42,45.3,141.3Zm49.54-.05c-2.79,8-10.42,13.25-18.42,12.57a18.2,18.2,0,0,1-16.78-15.5,23.41,23.41,0,0,1-.18-2.64l-.29-.08q.64-3.4,1.62-6.73Q79.32,75.59,97.86,22.31A18.11,18.11,0,0,1,132.72,24c1,4.31.06,8.35-1.36,12.42Q113.06,88.82,94.84,141.25Zm44.8-1.5a17.3,17.3,0,0,1-.53,2.15,18.59,18.59,0,0,1-.8,2c-.1.22-.21.44-.32.65a11.77,11.77,0,0,1-.72,1.24h0a15.4,15.4,0,0,1-1.26,1.74,15.6,15.6,0,0,1-1.1,1.21,17,17,0,0,1-17.88,4,16.18,16.18,0,0,1-2-.88c-.42-.22-.83-.46-1.24-.72h0a18.38,18.38,0,0,1-1.74-1.26,17.19,17.19,0,0,1-2.31-2.31,18.38,18.38,0,0,1-1.26-1.74h0c-.26-.4-.5-.82-.72-1.24-.11-.21-.22-.43-.32-.65a15.57,15.57,0,0,1-.8-2,16.88,16.88,0,0,1-.53-2.15,17.67,17.67,0,0,1,0-6c.06-.36.14-.73.23-1.08s.19-.71.3-1.06h0a16.15,16.15,0,0,1,.8-2c.1-.21.21-.43.32-.64h0a13.81,13.81,0,0,1,.72-1.24,15.4,15.4,0,0,1,1.26-1.74,14,14,0,0,1,1.1-1.21,13.81,13.81,0,0,1,1.21-1.1,18.38,18.38,0,0,1,1.74-1.26h0c.41-.26.82-.5,1.24-.72a16.18,16.18,0,0,1,2-.88,17,17,0,0,1,17.88,4,14,14,0,0,1,1.1,1.21,16.76,16.76,0,0,1,1.26,1.74,13.81,13.81,0,0,1,.72,1.24h0c.11.21.22.43.32.64a19.9,19.9,0,0,1,.8,2h0c.11.34.21.7.3,1.06s.17.72.23,1.08a17,17,0,0,1,0,6Z"/><path class="cls-1" d="M187.87,104.88l0,0a48.29,48.29,0,0,0-15.23-13.8q2.76,8,5.55,16c2.57,7.37,5.17,14.72,7.64,22.12.14.5.28,1,.41,1.51l.36,1.51c.22,1,.42,2,.58,3.06h0a19,19,0,0,1-.65,4.35c-.05.2-.11.4-.17.6a18.67,18.67,0,0,1-.68,1.86c-.13.31-.27.61-.41.9s-.34.67-.52,1-.43.73-.66,1.09a20.07,20.07,0,0,1-1.4,1.89c-.34.4-.69.78-1.05,1.15a17.48,17.48,0,0,1-9.51,5,18.17,18.17,0,0,1-18.49-8c-.19-.3-.38-.6-.55-.91s-.26-.47-.38-.71a17.29,17.29,0,0,1-1-2.25q-7.16-20.52-14.29-41L133,87.36a48.94,48.94,0,0,0-4.9,2,48.07,48.07,0,0,0-25,58.21h0a48,48,0,0,0,15.56,22.48c.44.37.89.71,1.34,1l1,.76c.28.2.56.4.85.59s.42.3.64.43c.58.38,1.17.75,1.76,1.1l1.12.65,0,0q.92.51,1.86,1l.38.19.19.08c.35.17.71.35,1.07.51l1.1.48q1.2.51,2.43,1c.57.2,1.14.4,1.72.58s1.16.36,1.74.52,1.17.31,1.76.45,1.17.27,1.76.38l.13,0,1.34.24c.56.09,1.13.17,1.7.24.4.06.8.1,1.2.14.56.06,1.12.11,1.69.14.38,0,.76,0,1.15.06.69,0,1.38.05,2.07.05.54,0,1.08,0,1.61,0,.86,0,1.72-.08,2.58-.16a.32.32,0,0,0,.14,0c.46,0,.93-.09,1.39-.15l.53-.08q.6-.07,1.2-.18a.16.16,0,0,0,.1,0l1.16-.2a47.33,47.33,0,0,0,6.56-1.65l1.06-.37.29-.11h0a47.76,47.76,0,0,0,12.63-7l.6-.48a47.84,47.84,0,0,0,16.87-26.53l0-.11,0-.11a47,47,0,0,0,1.2-9.33.09.09,0,0,0,0-.07V134c0-.44,0-.87,0-1.31A47.72,47.72,0,0,0,187.87,104.88Zm-48.76,37a18.59,18.59,0,0,1-.8,2c-.1.22-.21.44-.32.65-.22.42-.46.84-.72,1.24h0a18.38,18.38,0,0,1-1.26,1.74,15.6,15.6,0,0,1-1.1,1.21,17,17,0,0,1-17.88,4,16.18,16.18,0,0,1-2-.88c-.42-.22-.83-.46-1.24-.72h0a15.4,15.4,0,0,1-1.74-1.26,17.19,17.19,0,0,1-2.31-2.31,15.4,15.4,0,0,1-1.26-1.74h0a11.77,11.77,0,0,1-.72-1.24c-.11-.21-.22-.43-.32-.65a15.57,15.57,0,0,1-.8-2,17.08,17.08,0,0,1-.53-8.19c.06-.36.14-.73.23-1.08s.19-.72.3-1.06h0a16.15,16.15,0,0,1,.8-2c.1-.21.21-.43.32-.64h0a13.81,13.81,0,0,1,.72-1.24,15.4,15.4,0,0,1,1.26-1.74,14,14,0,0,1,1.1-1.21,13.81,13.81,0,0,1,1.21-1.1,15.4,15.4,0,0,1,1.74-1.26h0c.41-.26.82-.5,1.24-.72a16.18,16.18,0,0,1,2-.88,17,17,0,0,1,17.88,4,14,14,0,0,1,1.1,1.21,16.76,16.76,0,0,1,1.26,1.74,13.81,13.81,0,0,1,.72,1.24h0c.11.21.22.43.32.64a19.9,19.9,0,0,1,.8,2h0c.11.35.21.7.3,1.06s.17.72.23,1.08a17.67,17.67,0,0,1,0,6A17.3,17.3,0,0,1,139.11,141.9ZM172.61,91h0Z"/><rect class="cls-2" x="99.27" y="76.38" width="113.79" height="46.44" rx="23.22" transform="translate(199.15 -80.57) rotate(70.89)"/><polygon class="cls-3" points="117.77 75.29 128.91 43.04 116.83 35.72 103.3 63.55 117.77 75.29"/><circle class="cls-3" cx="122.86" cy="136.73" r="17.04"/><path d="M103.08,147.59l3-8.25a16.85,16.85,0,0,1,6.58-16.21L126.7,84.36l-13.42,4.07-18,51.6Z"/></g></g></svg>